<?xml version="1.0" standalone="no"?>
<!DOCTYPE svg PUBLIC "-//W3C//DTD SVG 20010904//EN"
 "http://www.w3.org/TR/2001/REC-SVG-20010904/DTD/svg10.dtd">
<svg version="1.0" xmlns="http://www.w3.org/2000/svg"
 width="80.000000pt" height="80.000000pt" viewBox="0 0 80.000000 80.000000"
 preserveAspectRatio="xMidYMid meet">

<g transform="translate(0.000000,80.000000) scale(0.100000,-0.100000)"
fill="#000000" stroke="none">
<path d="M362 594 c-13 -9 -22 -25 -22 -42 0 -32 8 -45 35 -60 19 -10 19 -11
-6 -21 -42 -15 -69 -58 -69 -107 0 -37 3 -44 20 -44 15 0 20 -7 20 -27 0 -16
3 -45 6 -65 7 -38 7 -38 54 -38 47 0 47 0 54 38 3 20 6 49 6 65 0 20 5 27 20
27 17 0 20 7 20 44 0 49 -27 92 -69 107 -25 10 -25 11 -6 21 27 15 35 28 35
60 0 28 -31 58 -60 58 -9 0 -26 -7 -38 -16z m66 -16 c34 -34 -6 -90 -48 -68
-35 19 -20 80 20 80 9 0 21 -5 28 -12z m2 -128 c21 0 50 -46 50 -77 0 -26 -4
-33 -20 -33 -15 0 -20 -7 -20 -27 0 -16 -3 -45 -6 -65 -6 -33 -10 -38 -34 -38
-24 0 -28 5 -34 38 -3 20 -6 49 -6 65 0 20 -5 27 -20 27 -16 0 -20 7 -20 33 0
17 7 40 14 49 15 21 56 38 74 32 8 -2 18 -4 22 -4z"/>
<path d="M237 542 c-32 -35 -15 -82 29 -82 21 0 54 33 54 52 0 13 -39 48 -53
48 -8 0 -21 -8 -30 -18z m56 -26 c8 -20 -8 -38 -29 -34 -22 4 -31 37 -13 48
15 10 36 3 42 -14z"/>
<path d="M500 540 c-24 -24 -24 -29 -4 -58 17 -24 53 -29 72 -10 19 19 14 55
-10 72 -29 20 -34 20 -58 -4z m58 -34 c-4 -25 -43 -34 -51 -12 -4 9 1 22 9 30
20 20 46 9 42 -18z"/>
<path d="M215 425 c-28 -27 -35 -92 -11 -101 8 -3 16 -27 20 -55 7 -48 7 -49
41 -49 19 0 35 5 35 10 0 6 -11 10 -24 10 -25 0 -36 21 -36 73 0 17 -5 27 -15
27 -22 0 -19 53 3 73 10 10 24 17 30 17 7 0 12 5 12 10 0 18 -31 10 -55 -15z"/>
<path d="M520 440 c0 -5 8 -10 18 -10 11 0 26 -8 35 -18 22 -24 23 -72 2 -72
-10 0 -15 -10 -15 -27 0 -52 -11 -73 -36 -73 -13 0 -24 -4 -24 -10 0 -5 16
-10 35 -10 34 0 34 1 41 49 4 28 12 52 20 55 24 9 17 74 -11 101 -24 25 -65
34 -65 15z"/>
</g>
</svg>
